<?xml version="1.0" encoding="utf-8"?>
<svg width="61px" height="56px" viewBox="0 0 61 56" version="1.1" xmlns:xlink="http://www.w3.org/1999/xlink" xmlns="http://www.w3.org/2000/svg">
  <defs>
    <filter filterUnits="userSpaceOnUse" color-interpolation-filters="sRGB" id="filter_1">
      <feFlood flood-opacity="0" result="BackgroundImageFix" />
      <feColorMatrix in="SourceAlpha" type="matrix" values="0 0 0 0 0 0 0 0 0 0 0 0 0 0 0 0 0 0 127 0" />
      <feOffset dx="2" dy="6" />
      <feGaussianBlur stdDeviation="2" />
      <feColorMatrix type="matrix" values="0 0 0 0 0 0 0 0 0 0 0 0 0 0 0 0 0 0 0.43137255 0" />
      <feBlend mode="normal" in2="BackgroundImageFix" result="effect0_dropShadow" />
      <feBlend mode="normal" in="SourceGraphic" in2="effect0_dropShadow" result="shape" />
    </filter>
    <path d="M0 0L40 0L40 40L0 40L0 0Z" id="path_1" />
    <clipPath id="mask_1">
      <use xlink:href="#path_1" />
    </clipPath>
  </defs>
  <g id="Group-3">
    <path d="M7.999 0L53.001 0Q53.1974 0 53.3935 0.00963514Q53.5896 0.0192703 53.785 0.0385174Q53.9805 0.0577644 54.1747 0.0865771Q54.3689 0.11539 54.5615 0.153699Q54.7541 0.192007 54.9446 0.23972Q55.1351 0.287433 55.323 0.344434Q55.5109 0.401436 55.6958 0.467589Q55.8807 0.533742 56.0621 0.608888Q56.2435 0.684033 56.421 0.76799Q56.5985 0.851946 56.7717 0.944512Q56.9449 1.03708 57.1133 1.13803Q57.2817 1.23898 57.445 1.34807Q57.6083 1.45717 57.766 1.57414Q57.9237 1.69112 58.0755 1.81569Q58.2273 1.94026 58.3728 2.07213Q58.5183 2.204 58.6571 2.34285Q58.796 2.4817 58.9279 2.6272Q59.0597 2.7727 59.1843 2.92449Q59.3089 3.07628 59.4258 3.234Q59.5428 3.39172 59.6519 3.55499Q59.761 3.71826 59.862 3.88669Q59.9629 4.05512 60.0555 4.2283Q60.1481 4.40148 60.232 4.57899Q60.316 4.7565 60.3911 4.93791Q60.4663 5.11933 60.5324 5.30422Q60.5986 5.4891 60.6556 5.67701Q60.7126 5.86492 60.7603 6.0554Q60.808 6.24588 60.8463 6.43847Q60.8846 6.63106 60.9134 6.8253Q60.9422 7.01954 60.9615 7.21496Q60.9807 7.41038 60.9904 7.60651Q61 7.80264 61 7.999L61 48.001Q61 48.1974 60.9904 48.3935Q60.9807 48.5896 60.9615 48.785Q60.9422 48.9805 60.9134 49.1747Q60.8846 49.3689 60.8463 49.5615Q60.808 49.7541 60.7603 49.9446Q60.7126 50.1351 60.6556 50.323Q60.5986 50.5109 60.5324 50.6958Q60.4663 50.8807 60.3911 51.0621Q60.316 51.2435 60.232 51.421Q60.148 51.5985 60.0555 51.7717Q59.9629 51.9449 59.862 52.1133Q59.761 52.2817 59.6519 52.445Q59.5428 52.6083 59.4259 52.766Q59.3089 52.9237 59.1843 53.0755Q59.0597 53.2273 58.9279 53.3728Q58.796 53.5183 58.6571 53.6571Q58.5183 53.796 58.3728 53.9279Q58.2273 54.0597 58.0755 54.1843Q57.9237 54.3089 57.766 54.4258Q57.6083 54.5428 57.445 54.6519Q57.2817 54.761 57.1133 54.862Q56.9449 54.9629 56.7717 55.0555Q56.5985 55.148 56.421 55.232Q56.2435 55.316 56.0621 55.3911Q55.8807 55.4663 55.6958 55.5324Q55.5109 55.5986 55.323 55.6556Q55.1351 55.7126 54.9446 55.7603Q54.7541 55.808 54.5615 55.8463Q54.3689 55.8846 54.1747 55.9134Q53.9805 55.9422 53.785 55.9615Q53.5896 55.9807 53.3935 55.9904Q53.1974 56 53.001 56L7.999 56Q7.80264 56 7.60651 55.9904Q7.41038 55.9807 7.21496 55.9615Q7.01954 55.9422 6.8253 55.9134Q6.63106 55.8846 6.43847 55.8463Q6.24588 55.808 6.0554 55.7603Q5.86492 55.7126 5.67701 55.6556Q5.4891 55.5986 5.30422 55.5324Q5.11933 55.4663 4.93791 55.3911Q4.7565 55.316 4.57899 55.232Q4.40148 55.148 4.2283 55.0555Q4.05512 54.9629 3.88669 54.862Q3.71826 54.761 3.55499 54.6519Q3.39172 54.5428 3.234 54.4258Q3.07628 54.3089 2.92449 54.1843Q2.7727 54.0597 2.6272 53.9279Q2.4817 53.796 2.34285 53.6571Q2.204 53.5183 2.07213 53.3728Q1.94026 53.2273 1.81569 53.0755Q1.69112 52.9237 1.57414 52.766Q1.45717 52.6083 1.34807 52.445Q1.23898 52.2817 1.13803 52.1133Q1.03708 51.9449 0.944512 51.7717Q0.851946 51.5985 0.76799 51.421Q0.684033 51.2435 0.608888 51.0621Q0.533742 50.8807 0.467589 50.6958Q0.401436 50.5109 0.344434 50.323Q0.287433 50.1351 0.23972 49.9446Q0.192007 49.7541 0.153699 49.5615Q0.11539 49.3689 0.0865771 49.1747Q0.0577644 48.9805 0.0385174 48.785Q0.0192703 48.5896 0.00963514 48.3935Q0 48.1974 0 48.001L0 7.999Q0 7.80264 0.00963514 7.60651Q0.0192703 7.41038 0.0385174 7.21496Q0.0577644 7.01954 0.0865771 6.8253Q0.11539 6.63106 0.153699 6.43847Q0.192007 6.24588 0.23972 6.0554Q0.287433 5.86492 0.344434 5.67701Q0.401436 5.4891 0.467589 5.30422Q0.533742 5.11933 0.608888 4.93791Q0.684033 4.7565 0.76799 4.57899Q0.851946 4.40148 0.944512 4.2283Q1.03708 4.05512 1.13803 3.88669Q1.23898 3.71826 1.34807 3.55499Q1.45717 3.39172 1.57414 3.234Q1.69112 3.07628 1.81569 2.92449Q1.94026 2.7727 2.07213 2.6272Q2.204 2.4817 2.34285 2.34285Q2.4817 2.204 2.6272 2.07213Q2.7727 1.94026 2.92449 1.81569Q3.07628 1.69112 3.234 1.57414Q3.39172 1.45717 3.55499 1.34807Q3.71826 1.23898 3.88669 1.13803Q4.05512 1.03708 4.2283 0.944512Q4.40148 0.851946 4.57899 0.76799Q4.7565 0.684033 4.93791 0.608888Q5.11933 0.533742 5.30422 0.467589Q5.4891 0.401436 5.67701 0.344434Q5.86492 0.287433 6.0554 0.23972Q6.24588 0.192007 6.43847 0.153699Q6.63106 0.11539 6.8253 0.0865771Q7.01954 0.0577644 7.21496 0.0385174Q7.41038 0.0192703 7.60651 0.00963514Q7.80264 0 7.999 0L7.999 0Z" id="Rectangle-2" fill="#1DB660" fill-rule="evenodd" stroke="none" filter="url(#filter_1)" />
    <g id="icons8_whatsapp" transform="translate(10.999939 8.0000305)">
      <path d="M0 0L40 0L40 40L0 40L0 0Z" id="Background" fill="none" fill-rule="evenodd" stroke="none" />
      <g clip-path="url(#mask_1)">
        <path d="M18.4 0C8.24763 0 0 8.24763 0 18.4C0 21.6633 0.89495 24.7087 2.3875 27.3672L0.0296875 35.7844C-0.0469666 36.0585 0.0277622 36.3527 0.225936 36.5569C0.424109 36.7612 0.715888 36.8449 0.992187 36.7766L9.76875 34.6016C12.3477 35.9783 15.2741 36.8 18.4 36.8C28.5524 36.8 36.8 28.5524 36.8 18.4C36.8 8.24763 28.5524 0 18.4 0L18.4 0ZM18.4 1.60001C27.6876 1.60001 35.2 9.11238 35.2 18.4C35.2 27.6876 27.6876 35.2 18.4 35.2C15.4224 35.2 12.6337 34.4237 10.2094 33.0672C10.0321 32.9681 9.82371 32.9402 9.62657 32.9891L1.94063 34.8938L4.00157 27.5406C4.06116 27.3307 4.03237 27.1054 3.92188 26.9172C2.44856 24.4189 1.60001 21.5121 1.60001 18.4C1.60001 9.11238 9.11238 1.60001 18.4 1.60001L18.4 1.60001ZM11.7141 8.80002C11.2012 8.80002 10.4688 8.99081 9.86719 9.63908C9.50581 10.0285 8 11.4956 8 14.075C8 16.7642 9.86511 19.0847 10.0906 19.3828L10.0922 19.3828L10.0922 19.3844C10.0708 19.3563 10.3784 19.8018 10.7891 20.336C11.1997 20.8701 11.7739 21.5717 12.4953 22.3313C13.9381 23.8503 15.9666 25.606 18.4844 26.6797C19.6438 27.1734 20.5585 27.4716 21.2516 27.6891C22.5359 28.0924 23.7057 28.0311 24.5844 27.9016C25.2421 27.8047 25.9655 27.4889 26.6813 27.036C27.397 26.583 28.0985 26.0198 28.4078 25.1641C28.6294 24.5506 28.7421 23.9837 28.7828 23.5172C28.8032 23.284 28.8058 23.0781 28.7906 22.8875C28.7755 22.6969 28.7917 22.5509 28.6141 22.2594C28.2416 21.6479 27.8198 21.6319 27.3797 21.4141C27.1352 21.2931 26.4389 20.9531 25.7406 20.6203C25.0431 20.288 24.4391 19.9936 24.0672 19.861C23.8322 19.7764 23.5452 19.6547 23.1313 19.7016C22.7173 19.7485 22.3084 20.0472 22.0703 20.4C21.8447 20.7345 20.9363 21.8067 20.6594 22.1219C20.6557 22.1197 20.6797 22.1307 20.5703 22.0766C20.2278 21.9071 19.8089 21.7629 19.1891 21.436C18.5692 21.109 17.7938 20.6261 16.9453 19.8781L16.9453 19.8766C15.6824 18.7648 14.7978 17.3689 14.5188 16.9C14.5375 16.8777 14.5165 16.9047 14.5563 16.8656L14.5578 16.8641C14.843 16.5832 15.0958 16.2476 15.3094 16.0016C15.6122 15.6527 15.7458 15.3452 15.8906 15.0578C16.1792 14.4852 16.0185 13.855 15.8516 13.5235L15.8516 13.5219C15.8631 13.5448 15.7613 13.3201 15.6516 13.061C15.5416 12.801 15.4013 12.464 15.2516 12.1047C14.952 11.386 14.6176 10.5799 14.4188 10.1078L14.4188 10.1063C14.1845 9.55017 13.8675 9.14954 13.4531 8.95627C13.0387 8.76299 12.6726 8.81794 12.6578 8.81721L12.6563 8.81721C12.3605 8.80356 12.036 8.80002 11.7141 8.80002L11.7141 8.80002ZM11.7141 10.4C12.0225 10.4 12.3266 10.4038 12.5812 10.4156C12.8432 10.4287 12.8269 10.4298 12.7766 10.4063C12.7254 10.3824 12.7948 10.3746 12.9437 10.7281C13.1385 11.1904 13.4745 11.9994 13.775 12.7203C13.9252 13.0808 14.0658 13.4191 14.1781 13.6844C14.2904 13.9497 14.3513 14.0978 14.4219 14.2391L14.4219 14.2406L14.4234 14.2422C14.4927 14.3788 14.4865 14.2913 14.4625 14.3391C14.2937 14.6741 14.2708 14.7564 14.1 14.9531C13.84 15.2527 13.5748 15.5867 13.4344 15.725C13.3115 15.8457 13.0899 16.0336 12.9516 16.4016C12.813 16.7701 12.8777 17.2757 13.1 17.6531C13.396 18.1557 14.3715 19.7435 15.8875 21.0781C16.8422 21.9197 17.7316 22.4768 18.4422 22.8516C19.1527 23.2264 19.7314 23.4453 19.8609 23.5094C20.1684 23.6616 20.5045 23.7797 20.8953 23.7328C21.2861 23.6859 21.623 23.4488 21.8375 23.2063L21.8391 23.2047C22.1245 22.8811 22.9727 21.9126 23.3797 21.3156C23.3969 21.3217 23.3913 21.317 23.5266 21.3656L23.5266 21.3672L23.5281 21.3672C23.5899 21.3892 24.3634 21.7354 25.0531 22.0641C25.7428 22.3927 26.4428 22.7343 26.6703 22.8469C26.9986 23.0093 27.1537 23.1151 27.1937 23.1156C27.1965 23.186 27.1992 23.2623 27.1891 23.3781C27.161 23.6994 27.0751 24.1442 26.9031 24.6203C26.8189 24.8534 26.38 25.3341 25.8266 25.6844C25.2731 26.0346 24.5995 26.282 24.35 26.3188C23.5999 26.4293 22.7093 26.4696 21.7312 26.1625C21.0531 25.9496 20.2074 25.6741 19.1125 25.2078C16.8918 24.2608 15.0045 22.6492 13.6562 21.2297C12.9821 20.5199 12.442 19.8592 12.0578 19.3594C11.6743 18.8605 11.5068 18.6008 11.3672 18.4172L11.3656 18.4156C11.1178 18.0878 9.6 15.9767 9.6 14.075C9.6 12.0624 10.5348 11.2732 11.0406 10.7281C11.3062 10.442 11.5965 10.4 11.7141 10.4L11.7141 10.4Z" transform="translate(1.6000059 1.6000061)" id="Shape" fill="#FFFFFF" fill-rule="evenodd" stroke="none" />
      </g>
    </g>
  </g>
</svg>